# xmcd CD database file
#
# Track frame offsets:
#	150
#	20802
#	39587
#	60755
#
# Disc length: 914 seconds
#
# Revision: 0
# Processed by: cddbd v1.5.1PL2 Copyright (c) Steve Scherf et al.
# Submitted via: CD2WAV32(JP) R3.22
#
DISCID=29039004
DTITLE=山崎亜弥子 - 私はあなたを終われない
DYEAR=1995
DGENRE=J-POP(J)
TTITLE0=私はあなたを終われない
TTITLE1=臆病な唇
TTITLE2=私はあなたを終われない [オリジナル・カラオケ]
TTITLE3=profile
EXTD=
EXTT0=
EXTT1=
EXTT2=
EXTT3=
PLAYORDER=
